<svg version="1.1" viewBox="0.0 0.0 1024.0 1024.0" fill="none" stroke="none" stroke-linecap="square" stroke-miterlimit="10" xmlns:xlink="http://www.w3.org/1999/xlink" xmlns="http://www.w3.org/2000/svg"><clipPath id="p.0"><path d="m0 0l1024.0 0l0 1024.0l-1024.0 0l0 -1024.0z" clip-rule="nonzero"/></clipPath><g clip-path="url(#p.0)"><path fill="#000000" fill-opacity="0.0" d="m0 0l1024.0 0l0 1024.0l-1024.0 0z" fill-rule="evenodd"/><path fill="#b7b7b7" d="m0 512.0l0 0c0 -183.3945 98.08933 -352.78253 257.15094 -444.0675c159.06161 -91.285 354.79926 -90.52345 513.14575 1.9964676c158.3465 92.51993 255.1148 262.66605 253.6878 446.055l-51.90497 -0.40386963l0 0c1.2823486 -164.797 -85.6756 -317.69373 -227.96893 -400.83395c-142.29333 -83.14025 -318.1871 -83.82459 -461.12305 -1.7940674c-142.93596 82.030525 -231.081 234.24597 -231.081 399.04794z" fill-rule="evenodd"/><path fill="#519433" d="m0 512.0l0 0c0 183.39453 98.08933 352.78253 257.15094 444.0675c159.06161 91.285034 354.79926 90.52344 513.14575 -1.99646c158.3465 -92.5199 255.1148 -262.66608 253.6878 -446.05502l-51.90497 0.40390015l0 0c1.2823486 164.797 -85.6756 317.69373 -227.96893 400.83398c-142.29333 83.1402 -318.1871 83.824585 -461.12305 1.7940674c-142.93596 -82.03052 -231.081 -234.24597 -231.081 -399.04797z" fill-rule="evenodd"/></g></svg>